<svg width="949" height="256" xmlns="http://www.w3.org/2000/svg" xmlns:xlink="http://www.w3.org/1999/xlink" xml:space="preserve" version="1.1">
 <g>
  <title>Layer 1</title>
  <g id="svg_1">
   <g id="svg_2">
    <defs>
     <rect height="301" width="301" y="-23" x="24" id="SVGID_1_"/>
    </defs>
    <clipPath id="SVGID_2_">
     <use id="svg_3" xlink:href="#SVGID_1_"/>
    </clipPath>
    <g id="svg_4" clip-path="url(#SVGID_2_)" class="st0">
     <defs>
      <rect height="301" width="301" y="-23" x="24" id="SVGID_3_"/>
     </defs>
     <clipPath id="SVGID_4_">
      <use id="svg_5" xlink:href="#SVGID_3_"/>
     </clipPath>
     <path id="svg_6" fill="#F45A8D" clip-path="url(#SVGID_4_)" d="m308.6,251.8l-270.1,0c-1.5,0 -2.8,-1.2 -2.8,-2.8l0,-243.6c0,-1.5 1.2,-2.8 2.8,-2.8l270.1,0c1.5,0 2.8,1.2 2.8,2.8l0,243.6c-0.1,1.6 -1.3,2.8 -2.8,2.8" class="st1"/>
     <path id="svg_7" fill="#FFFFFF" clip-path="url(#SVGID_4_)" d="m281.2,225l-215.4,0c-1.5,0 -2.8,-1.2 -2.8,-2.8l0,-189.5c0,-1.5 1.2,-2.8 2.8,-2.8l215.4,0c1.5,0 2.8,1.2 2.8,2.8l0,189.5c0,1.6 -1.2,2.8 -2.8,2.8" class="st2"/>
     <path id="svg_8" clip-path="url(#SVGID_4_)" d="m140.1,127.2c-0.4,-0.4 -0.7,-0.7 -1,-1c-11,-11.1 -22.1,-22.1 -33.1,-33.2c-4.8,-4.8 -4.3,-12.2 1.1,-16.1c3.7,-2.7 8.8,-2.6 12.4,0.2c0.5,0.4 1,0.8 1.4,1.3c13.6,13.6 27.3,27.3 40.9,40.9c3.3,3.3 4.5,7.2 2.7,11.6c-0.5,1.4 -1.4,2.7 -2.5,3.8c-13.8,13.8 -27.6,27.6 -41.4,41.4c-4.3,4.3 -10.8,4.3 -14.9,0.2c-4.2,-4.2 -4.1,-10.6 0.3,-15c11,-11 22,-22.1 33.1,-33.1c0.3,-0.2 0.6,-0.6 1,-1" class="st3"/>
     <path id="svg_9" clip-path="url(#SVGID_4_)" d="m245.3,170.9c-0.1,0.2 -0.2,0.4 -0.2,0.6c-1.4,5.5 -5,8.3 -10.5,8.3c-10.7,0 -21.4,0 -32.1,0c-9,0 -18.1,0.1 -27.1,-0.1c-5.4,-0.1 -9.7,-4.8 -9.7,-10.3c0,-5.8 4.4,-10.5 10,-10.6c3.1,-0.1 6.3,0 9.4,0c15.9,0 31.8,0.1 47.7,-0.1c5.6,-0.1 10.6,1.8 12.4,9l0,3.2l0.1,0z" class="st3"/>
    </g>
   </g>
  </g>
  <g fill="#F45A8D" id="svg_10">
   <path id="svg_11" d="m424.9,208.3c-2.3,0 -3.9,-1.1 -4.9,-3.4l-54,-128.4c-1.2,-2.8 -1.2,-4.9 -0.1,-6.5c1.1,-1.6 2.7,-2.3 4.8,-2.3c2.3,0 4,1.3 5.2,3.8l51.8,124l-5.2,0l51.1,-123.3c0.6,-1.7 1.4,-2.8 2.3,-3.5c1,-0.7 2.2,-1 3.6,-1c2.2,0 3.6,0.9 4.3,2.7c0.7,1.8 0.6,3.8 -0.4,6.1l-53.8,128.3c-0.6,1.3 -1.4,2.2 -2.3,2.7c-0.7,0.6 -1.6,0.8 -2.4,0.8z"/>
   <path id="svg_12" d="m511.3,208.3c-1.6,0 -2.9,-0.5 -3.9,-1.5c-1,-1 -1.5,-2.3 -1.5,-3.9l0,-129.8c0,-1.6 0.5,-2.8 1.5,-3.9c1,-1 2.3,-1.5 3.9,-1.5c1.6,0 2.8,0.5 3.9,1.5c1,1 1.5,2.3 1.5,3.9l0,129.8c0,1.6 -0.5,2.9 -1.5,3.9c-1.1,1 -2.4,1.5 -3.9,1.5z"/>
   <path id="svg_13" d="m542.3,77.4c-1.4,0 -2.6,-0.5 -3.5,-1.4c-0.9,-0.9 -1.3,-2.1 -1.3,-3.5c0,-1.4 0.5,-2.6 1.3,-3.5c0.9,-0.9 2.1,-1.4 3.5,-1.4l101.9,0c1.4,0 2.6,0.5 3.5,1.4c0.9,0.9 1.3,2.1 1.3,3.5c0,1.4 -0.5,2.6 -1.3,3.5c-0.9,0.9 -2.1,1.4 -3.5,1.4l-101.9,0zm50.9,130.9c-1.6,0 -2.9,-0.5 -3.9,-1.5c-1,-1 -1.5,-2.3 -1.5,-3.9l0,-135.2l10.8,0l0,135.2c0,1.6 -0.5,2.9 -1.5,3.9c-1.1,1 -2.4,1.5 -3.9,1.5z"/>
   <path id="svg_14" d="m646.1,208.3c-2.3,0 -3.9,-0.9 -4.8,-2.7c-0.9,-1.8 -0.9,-3.5 -0.1,-5l54.5,-129.1c1,-2.5 2.7,-3.8 5.2,-3.8c2.4,0 4.1,1.3 5.2,3.8l54.9,129.1c1,1.7 0.9,3.4 -0.2,5.1c-1.1,1.7 -2.6,2.6 -4.7,2.6c-1.2,0 -2.2,-0.3 -3,-0.8c-0.8,-0.5 -1.5,-1.4 -2.1,-2.6l-52.9,-126.2l5.8,0l-52.7,126.2c-0.5,1.2 -1.1,2.1 -2,2.6c-0.9,0.5 -1.9,0.8 -3.1,0.8zm13.3,-35.3l4.3,-9.7l74.9,0l4.1,9.7l-83.3,0z"/>
   <path id="svg_15" d="m787.2,208.3c-1.6,0 -2.9,-0.5 -3.9,-1.5c-1,-1 -1.5,-2.3 -1.5,-3.9l0,-129.8c0,-1.6 0.5,-2.8 1.5,-3.9c1,-1 2.3,-1.5 3.9,-1.5c1.7,0 3.1,0.6 4.1,1.8l91.4,119l0,-115.4c0,-1.6 0.5,-2.8 1.5,-3.9c1,-1 2.3,-1.5 3.9,-1.5c1.4,0 2.7,0.5 3.8,1.5c1.1,1 1.6,2.3 1.6,3.9l0,129.8c0,1.6 -0.5,2.9 -1.6,3.9c-1.1,1 -2.3,1.5 -3.8,1.5c-0.8,0 -1.6,-0.1 -2.3,-0.5c-0.7,-0.3 -1.2,-0.7 -1.7,-1.2l-91.5,-119.1l0,115.4c0,1.6 -0.5,2.9 -1.5,3.9c-1,1 -2.3,1.5 -3.9,1.5z"/>
  </g>
 </g>
</svg>